# Blender v2.79 (sub 6) OBJ File: ''
# www.blender.org
o Cube
v -0.562500 -0.500000 -0.562500
v 0.437500 -0.500000 -0.562500
v 0.437500 -0.500000 0.437500
v -0.562500 -0.500000 0.437500
v 0.437500 0.000000 -0.562500
v 0.437500 0.500000 0.437500
v -0.562500 0.500000 0.437500
v -0.562500 0.000000 -0.562500
v 0.437500 0.000000 0.437500
v -0.562500 0.000000 0.437500
v -0.562500 -0.500000 -0.062500
v 0.437500 -0.500000 -0.062500
v 0.437500 0.000000 -0.062500
v -0.562500 0.500000 -0.062500
v 0.437500 0.500000 -0.062500
v -0.562500 0.000000 -0.062500
vt -0.000000 0.500000
vt -0.000000 -0.000000
vt 1.000000 -0.000000
vt 1.000000 0.500000
vt 0.500000 0.500000
vt 0.500000 1.000000
vt 0.000000 1.000000
vt 0.000000 0.500000
vt 1.000000 0.500000
vt 1.000000 1.000000
vt 0.000001 1.000000
vt 0.000000 0.500000
vt 0.500000 1.000000
vt 0.500000 0.500000
vt 1.000000 0.500000
vt 1.000000 1.000000
vt 0.999999 0.500000
vt 1.000000 1.000000
vt -0.000000 1.000000
vt -0.000000 0.500000
vt 1.000000 0.500000
vt 0.000000 0.500000
vt 0.000000 0.000000
vt 1.000000 0.000000
vt 1.000000 1.000000
vt -0.000000 1.000000
vt 0.500000 0.000000
vt 1.000000 0.000000
vt 0.000000 0.000000
vt 0.500000 0.000000
vt 1.000000 0.000000
vt 1.000000 0.500000
vt 0.000000 0.500000
vt 0.000000 0.000000
vt 1.000000 0.000000
vt 1.000000 0.500000
vt 0.000000 0.499999
vt 0.000000 0.000000
vt 1.000000 1.000000
vt 0.000000 1.000000
vn 0.0000 1.0000 0.0000
vn 1.0000 -0.0000 0.0000
vn -0.0000 -0.0000 1.0000
vn -1.0000 0.0000 -0.0000
vn 0.0000 0.0000 -1.0000
vn 0.0000 -1.0000 0.0000
g Cube_Cube_Top
s off
f 14/1/1 7/2/1 6/3/1 15/4/1
f 13/5/2 15/6/2 6/7/2 9/8/2
f 9/9/3 6/10/3 7/11/3 10/12/3
f 14/13/4 16/14/4 10/15/4 7/16/4
f 16/17/5 14/18/5 15/19/5 13/20/5
g Cube_Cube_Bottom
f 11/21/6 12/22/6 3/23/6 4/24/6
f 8/25/1 16/17/1 13/20/1 5/26/1
f 16/14/4 11/27/4 4/24/4 10/15/4
f 3/28/3 9/9/3 10/12/3 4/29/3
f 12/30/2 13/5/2 9/8/2 3/23/2
f 1/31/5 8/32/5 5/33/5 2/34/5
f 2/35/2 5/36/2 13/5/2 12/30/2
f 8/37/4 1/38/4 11/27/4 16/14/4
f 1/39/6 2/40/6 12/22/6 11/21/6
